<svg width="417" height="493" viewBox="0 0 417 493" fill="none" xmlns="http://www.w3.org/2000/svg">
<g filter="url(#filter0_d_13_297)">
<path d="M0 8C0 3.58172 3.58172 0 8 0H409C413.418 0 417 3.58172 417 8V485C417 489.418 413.418 493 409 493H8C3.58172 493 0 489.418 0 485V8Z" fill="white"/>
<path d="M8 2H409C412.314 2 415 4.68629 415 8V485C415 488.314 412.314 491 409 491H8C4.68629 491 2 488.314 2 485V8C2 4.68629 4.68629 2 8 2Z" stroke="black" stroke-width="4"/>
</g>
<defs>
<filter id="filter0_d_13_297" x="0" y="0" width="425" height="501" filterUnits="userSpaceOnUse" color-interpolation-filters="sRGB">
<feFlood flood-opacity="0" result="BackgroundImageFix"/>
<feColorMatrix in="SourceAlpha" type="matrix" values="0 0 0 0 0 0 0 0 0 0 0 0 0 0 0 0 0 0 127 0" result="hardAlpha"/>
<feOffset dx="8" dy="8"/>
<feComposite in2="hardAlpha" operator="out"/>
<feColorMatrix type="matrix" values="0 0 0 0 0 0 0 0 0 0 0 0 0 0 0 0 0 0 1 0"/>
<feBlend mode="normal" in2="BackgroundImageFix" result="effect1_dropShadow_13_297"/>
<feBlend mode="normal" in="SourceGraphic" in2="effect1_dropShadow_13_297" result="shape"/>
</filter>
</defs>
</svg>
