<svg width="355" height="634" viewBox="0 0 355 634" fill="none" xmlns="http://www.w3.org/2000/svg">
<path d="M176.008 368.196L88.5015 423.011L176.008 474.724L264.51 421.977L176.008 368.196Z" fill="#EA8A4B"/>
<path d="M177.997 367.162L89.4958 423.641V210.989L177.997 158.241V367.162Z" fill="#CC681C"/>
<path d="M355 581.253L266.499 634V210.989L355 158.241V581.253Z" fill="#CC681C"/>
<path d="M88.5014 0L0 52.7471L266.499 210.989L355 158.241L88.5014 0Z" fill="#EA8A4B"/>
<path d="M0 476.793L266.499 634V528.506L0 370.264V476.793Z" fill="#EEA66F"/>
<path d="M0 158.241L266.499 315.449V210.989L0 52.7472V158.241Z" fill="#EEA66F"/>
<path d="M0 476.793L89.4958 529.54V208.92L0 157.207V476.793Z" fill="#EEA66F"/>
<path d="M177.003 580.219L266.498 632.966V314.414L177.003 260.633V580.219Z" fill="#EEA66F"/>
</svg>
