<svg width="69" height="70" viewBox="0 0 69 70" fill="none" xmlns="http://www.w3.org/2000/svg">
<g filter="url(#filter0_d_1_103)">
<rect width="69" height="70" fill="#F5AB44"/>
<rect x="0.5" y="0.5" width="68" height="69" stroke="#E60058"/>
<path d="M34.503 5.83333C18.6186 5.83333 5.75293 18.8854 5.75293 35C5.75293 47.9063 13.9826 58.8073 25.4107 62.6719C26.8482 62.9271 27.3873 62.0521 27.3873 61.2865C27.3873 60.5938 27.3514 58.2969 27.3514 55.8542C20.1279 57.2031 18.2592 54.0677 17.6842 52.4271C17.3607 51.5885 15.9592 49 14.7373 48.3073C13.7311 47.7604 12.2936 46.4115 14.7014 46.375C16.9654 46.3385 18.5826 48.4896 19.1217 49.3646C21.7092 53.776 25.842 52.5365 27.4951 51.7708C27.7467 49.875 28.5014 48.599 29.328 47.8698C22.9311 47.1406 16.2467 44.625 16.2467 33.4688C16.2467 30.2969 17.3607 27.6719 19.1936 25.6302C18.9061 24.901 17.8998 21.9115 19.4811 17.901C19.4811 17.901 21.8889 17.1354 27.3873 20.8906C29.6874 20.2344 32.1311 19.9062 34.5749 19.9062C37.0186 19.9062 39.4624 20.2344 41.7624 20.8906C47.2608 17.099 49.6686 17.901 49.6686 17.901C51.2499 21.9115 50.2436 24.901 49.9561 25.6302C51.7889 27.6719 52.903 30.2604 52.903 33.4688C52.903 44.6615 46.1827 47.1406 39.7858 47.8698C40.828 48.7813 41.7264 50.5313 41.7264 53.2656C41.7264 57.1667 41.6905 60.3021 41.6905 61.2865C41.6905 62.0521 42.2296 62.9635 43.6671 62.6719C55.3697 58.6638 63.2498 47.5309 63.253 35C63.253 18.8854 50.3874 5.83333 34.503 5.83333Z" fill="black"/>
</g>
<defs>
<filter id="filter0_d_1_103" x="0" y="0" width="73" height="74" filterUnits="userSpaceOnUse" color-interpolation-filters="sRGB">
<feFlood flood-opacity="0" result="BackgroundImageFix"/>
<feColorMatrix in="SourceAlpha" type="matrix" values="0 0 0 0 0 0 0 0 0 0 0 0 0 0 0 0 0 0 127 0" result="hardAlpha"/>
<feOffset dx="4" dy="4"/>
<feComposite in2="hardAlpha" operator="out"/>
<feColorMatrix type="matrix" values="0 0 0 0 0 0 0 0 0 0 0 0 0 0 0 0 0 0 0.5 0"/>
<feBlend mode="normal" in2="BackgroundImageFix" result="effect1_dropShadow_1_103"/>
<feBlend mode="normal" in="SourceGraphic" in2="effect1_dropShadow_1_103" result="shape"/>
</filter>
</defs>
</svg>
