<svg width="75" height="67" viewBox="0 0 75 67" fill="none" xmlns="http://www.w3.org/2000/svg">
<rect x="0.5" y="0.5" width="74" height="66" fill="#F68A5F"/>
<rect x="0.5" y="0.5" width="74" height="66" stroke="black"/>
<path d="M57.3007 51.1964H48.971V39.5361C48.971 36.7556 48.9079 33.1776 44.6304 33.1776C40.2876 33.1776 39.6242 36.2032 39.6242 39.331V51.1964H31.2945V27.2188H39.296V30.487H39.4039C40.522 28.6026 43.2407 26.6137 47.3023 26.6137C55.7423 26.6137 57.3032 31.576 57.3032 38.0351L57.3007 51.1964ZM21.8868 23.9378C19.2055 23.9378 17.0516 21.999 17.0516 19.6143C17.0516 17.2316 19.2079 15.2948 21.8868 15.2948C24.5586 15.2948 26.7243 17.2316 26.7243 19.6143C26.7243 21.999 24.5563 23.9378 21.8868 23.9378ZM26.0633 51.1964H17.7102V27.2188H26.0633V51.1964ZM61.4679 8.375H13.529C11.2344 8.375 9.37817 9.99556 9.37817 11.9951V55.005C9.37817 57.0064 11.2344 58.625 13.529 58.625H61.461C63.7532 58.625 65.6282 57.0064 65.6282 55.005V11.9951C65.6282 9.99556 63.7532 8.375 61.461 8.375H61.4679Z" fill="black"/>
</svg>
