<svg width="926" height="805" viewBox="0 0 926 805" fill="none" xmlns="http://www.w3.org/2000/svg">
<path d="M546.211 383.445L580.684 399.399C578.898 399.941 577.14 400.555 575.367 401.126L570.115 403C566.609 404.244 563.13 405.605 559.664 406.966C556.199 408.356 552.733 409.747 549.307 411.255C545.933 412.718 542.546 414.211 539.226 415.836C537.374 402.692 534.596 388.656 530.958 385.392L546.211 383.445Z" fill="black"/>
<path d="M580.684 399.399V426.506C574.309 429.784 560.021 434.965 541.991 440.908C541.991 440.908 541.052 428.818 539.226 415.865C542.732 414.782 546.211 413.567 549.65 412.308C553.156 411.064 556.635 409.703 560.101 408.342C563.567 406.951 567.033 405.561 570.459 404.053L575.591 401.799C577.285 400.994 579.004 400.248 580.684 399.399Z" fill="black"/>
<path d="M333.297 413.728C334.607 413.289 335.89 412.806 337.16 412.235L335.4 419.963C333.689 418.097 331.873 416.352 329.964 414.738C331.075 414.431 332.199 414.109 333.297 413.728Z" fill="black"/>
<path d="M450.383 443.323C431.982 440.044 381.647 421.924 372.586 414.299C365.919 408.679 358.286 399.472 357.293 377.518C355.839 387.514 354.344 397.511 352.809 407.508L352.756 407.859C353.882 407.156 355.094 406.639 356.354 406.322C357.771 405.923 359.238 405.794 360.694 405.942C359.453 406.796 358.088 407.405 356.659 407.742C355.371 408.1 354.042 408.238 352.716 408.152L349.105 431.35C352.399 433.824 355.666 436.312 358.894 438.873L363.974 442.884L369.014 446.967C372.374 449.69 375.748 452.383 379.055 455.193C382.362 457.989 385.708 460.711 388.989 463.565L389.003 463.58C389.075 463.654 389.126 463.751 389.148 463.858C391.688 463.053 394.255 462.306 396.807 461.531L404.969 459.218C410.419 457.696 415.883 456.291 421.333 454.827C426.823 453.466 432.287 452.046 437.776 450.758C443.266 449.456 448.756 448.182 454.286 447.07C448.888 448.768 443.438 450.319 438.001 451.841C432.564 453.378 427.088 454.769 421.637 456.247C416.161 457.593 410.697 459.013 405.208 460.316L396.966 462.233C394.36 462.789 391.767 463.375 389.161 463.902C389.161 463.916 389.188 463.931 389.188 463.946C389.664 469.844 390.113 475.742 390.431 481.656C389.597 475.889 388.897 470.107 388.222 464.311C384.875 461.692 381.608 458.969 378.301 456.305C374.927 453.612 371.62 450.802 368.3 448.036L363.313 443.864L358.391 439.62C355.256 436.941 352.161 434.19 349.092 431.409L348.033 438.229C348.007 438.394 347.922 438.541 347.798 438.637C347.674 438.733 347.521 438.77 347.372 438.742C347.34 438.739 347.308 438.729 347.28 438.712L332.94 433.195C332.795 433.134 332.676 433.018 332.603 432.867C332.53 432.716 332.508 432.542 332.543 432.375L335.347 420.168C332.897 418.686 330.546 417.013 328.31 415.163C326.55 416.568 324.817 417.987 323.045 419.378C321.114 420.856 319.208 422.378 317.25 423.842C319.05 422.159 320.875 420.519 322.701 418.866C324.394 417.329 326.114 415.836 327.833 414.328C327.846 414.22 327.878 414.116 327.926 414.021C326.908 409.689 326.008 405.327 325.069 400.965C324.077 396.457 323.164 391.92 322.278 387.383C321.351 382.845 320.465 378.308 319.645 373.742C318.785 369.19 317.991 364.638 317.25 360.057C318.389 364.535 319.473 369.029 320.478 373.537C321.537 378.03 322.515 382.553 323.468 387.075C324.447 391.598 325.399 396.121 326.273 400.658C327.132 404.961 328.006 409.264 328.799 413.582C330.215 413.216 331.63 412.879 333.059 412.601C334.435 412.338 335.81 412.133 337.213 412.001L338.76 405.283L345.057 378.191L345.07 378.147V378.133C345.861 375.765 346.484 373.333 346.935 370.858C347.452 368.451 347.439 365.941 346.896 363.54C346.564 362.399 345.961 361.378 345.15 360.584C344.724 360.188 344.273 359.826 343.801 359.501L343.06 358.959L342.676 358.608C342.623 358.593 342.584 358.549 342.438 358.491C340.218 357.931 337.962 357.564 335.691 357.393C326.484 356.471 317.238 355.929 308.004 355.373C312.621 355.446 317.25 355.593 321.88 355.783C326.51 355.973 331.128 356.178 335.758 356.573C336.909 356.676 338.073 356.793 339.224 356.939C340.413 357.041 341.591 357.267 342.742 357.612C342.933 357.68 343.113 357.784 343.272 357.92L343.562 358.183L344.277 358.681C344.792 359.02 345.282 359.401 345.745 359.823C346.693 360.719 347.406 361.882 347.809 363.189C348.442 365.759 348.51 368.459 348.007 371.063C347.578 373.604 346.959 376.101 346.155 378.528L339.99 405.62L333.879 432.112L347.028 437.264L352.068 407.362C353.775 397.38 355.517 387.402 357.293 377.43C357 367.824 357.612 358.209 359.119 348.743L334.898 345.933C332.457 345.685 330.146 344.606 328.284 342.844C326.301 342.524 324.336 342.084 322.397 341.527C321.894 341.395 321.391 341.249 320.888 341.073C320.637 340.986 320.386 340.898 320.122 340.795C320.092 340.781 320.061 340.771 320.029 340.766H319.989C319.9 340.777 319.811 340.796 319.724 340.825C318.791 341.148 317.887 341.569 317.026 342.083C315.2 343.064 313.401 344.147 311.576 345.172C309.764 346.24 307.911 347.25 306.033 348.216C309.259 345.337 312.748 342.841 316.444 340.766C317.409 340.224 318.419 339.788 319.46 339.463C319.63 339.426 319.803 339.407 319.976 339.405C320.184 339.418 320.39 339.467 320.584 339.551C320.796 339.668 321.034 339.756 321.259 339.859L322.701 340.444C324.54 341.161 326.379 341.922 328.204 342.757C326.286 340.737 324.91 337.473 325.717 332.145L326.947 296.008L321.987 294.881C321.987 294.881 318.336 295.788 325.545 272.751L337.067 236.087C337.067 236.087 291.812 242.263 290.172 244.078C288.531 245.893 299.683 368.194 315.108 426.623C315.108 426.623 385.298 482.153 389.558 483.968C391.635 484.832 430.54 474.513 473.044 462.116C473.043 462.116 468.771 446.601 450.383 443.323ZM302.038 271.536C300.966 264.335 299.935 257.134 299.035 249.903C300.464 257.031 301.76 264.188 303.03 271.346C304.3 278.503 305.464 285.689 306.681 292.861C307.792 300.047 308.97 307.234 310.028 314.435L311.602 325.237C312.079 328.852 312.594 332.452 313.031 336.068C312.303 332.511 311.655 328.94 310.954 325.368L309.023 314.625C307.753 307.468 306.602 300.282 305.385 293.11C304.273 285.923 303.096 278.752 302.038 271.536Z" fill="black"/>
<path d="M424.336 186.733C421.929 186.733 418.859 188.182 415.803 188.914C412.747 189.645 405.75 188.182 405.089 186.016C404.427 183.835 400.3 165.861 399.625 166.71C398.963 167.559 397.654 169.067 397.654 169.067C397.654 169.067 397.429 190.963 397.865 193.319C398.316 195.69 406.398 207.546 418.423 206.331C430.448 205.116 432.207 189.397 432.207 189.397C432.207 189.397 426.731 186.733 424.336 186.733ZM426.32 193.231C425.437 193.833 424.404 194.11 423.37 194.022C422.366 193.937 421.392 193.596 420.526 193.026C419.684 192.486 418.964 191.74 418.423 190.846C419.993 191.745 421.695 192.33 423.45 192.573C424.271 192.641 425.096 192.516 425.871 192.207C426.71 191.847 427.512 191.39 428.265 190.846C427.844 191.836 427.167 192.666 426.32 193.231Z" fill="black"/>
<path d="M397.653 169.073C397.653 169.073 408.587 157.702 407.712 143.669C407.712 143.669 410.555 140.766 415.147 145.605C415.147 145.605 419.083 146.814 423.675 141.492C428.267 136.169 430.673 143.911 430.673 143.911C430.673 143.911 433.078 152.137 433.734 149.96C434.39 147.782 435.483 137.379 425.643 133.991C417.991 131.469 409.992 130.486 402.027 131.088C399.403 131.572 393.936 136.411 393.936 143.185C393.936 149.96 391.312 158.428 391.531 161.089C391.749 163.75 397.653 169.073 397.653 169.073Z" fill="black"/>
<path d="M407.494 166.17C409.614 165.273 411.891 164.92 414.153 165.137C415.291 165.246 416.411 165.516 417.486 165.942C418.555 166.377 419.542 167.029 420.395 167.863C419.387 167.38 418.344 166.989 417.278 166.694C416.224 166.426 415.154 166.242 414.076 166.141C411.884 165.976 409.684 165.985 407.494 166.17Z" fill="black"/>
<path d="M426.08 166.711C426.957 165.648 428.037 164.815 429.242 164.271C430.437 163.646 431.782 163.463 433.078 163.75C431.895 164.168 430.732 164.651 429.594 165.2C428.454 165.718 427.331 166.282 426.08 166.711Z" fill="black"/>
<path d="M415.803 171.311C416.157 171.298 416.493 171.132 416.739 170.85C416.986 170.568 417.123 170.191 417.123 169.799C417.123 169.407 416.986 169.03 416.739 168.748C416.493 168.466 416.157 168.3 415.803 168.287C415.449 168.3 415.113 168.466 414.867 168.748C414.62 169.03 414.483 169.407 414.483 169.799C414.483 170.191 414.62 170.568 414.867 170.85C415.113 171.132 415.449 171.298 415.803 171.311Z" fill="black"/>
<path d="M429.798 170.343C430.152 170.33 430.488 170.165 430.734 169.882C430.981 169.6 431.118 169.223 431.118 168.831C431.118 168.439 430.981 168.062 430.734 167.78C430.488 167.498 430.152 167.333 429.798 167.319C429.444 167.333 429.108 167.498 428.862 167.78C428.615 168.062 428.478 168.439 428.478 168.831C428.478 169.223 428.615 169.6 428.862 169.882C429.108 170.165 429.444 170.33 429.798 170.343Z" fill="black"/>
<path d="M391.53 161.089C391.052 161.309 390.625 161.645 390.28 162.072C389.935 162.499 389.681 163.006 389.537 163.556C389.262 164.644 389.263 165.794 389.543 166.88C390.179 169.102 390.93 171.281 391.79 173.409C392.56 175.632 393.166 177.921 393.605 180.252C393.782 181.347 394.271 182.35 395.001 183.114C395.391 183.489 395.848 183.769 396.343 183.934C396.838 184.1 397.359 184.147 397.872 184.074C397.341 184.245 396.782 184.282 396.237 184.183C395.691 184.083 395.173 183.849 394.72 183.498C393.828 182.711 393.194 181.62 392.916 180.395C392.382 178.141 391.721 175.926 390.938 173.763C390.574 172.663 390.202 171.566 389.805 170.478C389.369 169.372 389.05 168.213 388.857 167.025C388.637 165.808 388.728 164.547 389.121 163.385C389.331 162.819 389.658 162.316 390.077 161.917C390.496 161.518 390.994 161.234 391.53 161.089Z" fill="black"/>
<path d="M427.174 177.541C427.696 179.072 427.68 180.764 427.129 182.282C426.825 183.094 426.261 183.754 425.545 184.134C424.84 184.446 424.056 184.453 423.347 184.155C424.005 184.062 424.638 183.82 425.206 183.443C425.692 183.04 426.069 182.498 426.296 181.875C426.752 180.477 427.047 179.021 427.174 177.541Z" fill="black"/>
<path d="M433.734 149.96C433.548 153.282 433.542 156.613 433.716 159.936C433.807 161.584 433.978 163.226 434.23 164.853C434.496 166.449 434.916 168.085 435.169 169.753C435.683 173.102 435.65 176.526 435.071 179.863C434.443 183.15 433.48 186.348 432.203 189.396C433.144 186.239 433.872 183.008 434.381 179.731C434.839 176.476 434.802 173.16 434.271 169.918C434.052 168.288 433.669 166.698 433.414 165.007C433.166 163.342 433.033 161.657 433.019 159.969C432.961 156.615 433.201 153.262 433.734 149.96Z" fill="black"/>
<path d="M397.872 193.321C397.691 195.257 397.039 197.102 395.985 198.661C395.448 199.452 394.79 200.134 394.041 200.674C393.282 201.193 392.41 201.476 391.518 201.493C392.275 201.114 392.983 200.624 393.623 200.037C394.225 199.437 394.773 198.773 395.258 198.054C395.752 197.324 396.207 196.562 396.62 195.773C397.036 194.974 397.464 194.167 397.872 193.321Z" fill="black"/>
<path d="M397.014 195.907C390.369 197.4 383.866 199.585 377.592 202.432C374.339 203.738 370.939 204.538 367.487 204.808C364.133 205.025 360.793 205.45 357.482 206.08C356.735 206.261 356.018 206.569 355.358 206.995C354.599 207.515 353.799 207.958 352.967 208.318C351.455 208.94 350.062 209.87 348.86 211.061C346.566 213.702 344.681 216.741 343.279 220.059C342.484 221.695 341.85 223.43 341.152 225.128C340.52 226.861 339.886 228.597 339.293 230.351C338.735 232.12 338.142 233.877 337.61 235.658L336.092 241.032L336.088 241.045L336.082 241.066C332.919 249.821 330.045 258.698 327.46 267.696C326.179 272.191 324.969 276.712 323.936 281.268C323.427 283.547 322.946 285.833 322.586 288.122C322.403 289.252 322.278 290.393 322.21 291.538C322.18 292.081 322.188 292.625 322.233 293.166C322.244 293.545 322.347 293.914 322.531 294.234L322.155 294.021C329.669 295.655 337.188 297.284 344.717 298.823L356.002 301.151L361.65 302.207C363.483 302.559 365.33 302.809 367.186 302.957L367.735 302.963C367.736 302.93 367.722 302.967 367.755 302.944C367.792 302.902 367.834 302.866 367.88 302.835C368.13 302.513 368.34 302.154 368.501 301.768C368.886 300.86 369.204 299.92 369.452 298.956C369.96 296.949 370.366 294.912 370.669 292.856C371.306 288.718 371.646 284.513 371.909 280.306C372.149 276.095 372.227 271.874 372.143 267.643C372.087 263.416 371.86 259.188 371.432 254.977C371.43 254.951 371.436 254.925 371.451 254.905C371.465 254.884 371.487 254.871 371.51 254.867C371.533 254.864 371.557 254.87 371.576 254.885C371.595 254.9 371.608 254.923 371.612 254.948C372.253 259.134 372.695 263.361 372.965 267.604C373.201 271.85 373.27 276.105 373.174 280.369C373.08 284.638 372.763 288.897 372.226 293.126C371.958 295.262 371.582 297.38 371.1 299.469C370.845 300.551 370.511 301.608 370.101 302.63C369.869 303.212 369.559 303.752 369.181 304.231C369.047 304.369 368.9 304.503 368.753 304.629C368.555 304.762 368.343 304.865 368.121 304.936C367.811 304.969 367.532 304.968 367.235 304.978C365.268 304.85 363.309 304.603 361.366 304.237L355.676 303.206C351.896 302.466 348.118 301.725 344.356 300.904C336.835 299.243 329.326 297.524 321.831 295.745L321.768 295.73C321.648 295.702 321.538 295.633 321.455 295.532C320.972 294.924 320.7 294.147 320.685 293.338C320.644 292.703 320.647 292.065 320.694 291.431C320.79 290.224 320.948 289.023 321.165 287.835C321.581 285.484 322.12 283.183 322.716 280.906C323.906 276.35 325.264 271.867 326.663 267.403C328.086 262.949 329.519 258.501 330.993 254.07L335.457 240.794L335.447 240.827C337.15 233.509 339.364 226.347 342.067 219.406C343.424 215.836 345.366 212.574 347.795 209.785C349.118 208.442 350.654 207.383 352.326 206.661C353.075 206.327 353.8 205.933 354.496 205.482C355.308 204.964 356.19 204.593 357.107 204.382C360.5 203.779 363.921 203.394 367.353 203.229C369.032 203.066 370.704 202.867 372.347 202.534C373.992 202.254 375.611 201.81 377.184 201.208C383.571 198.538 390.216 196.692 396.985 195.707C397.009 195.704 397.034 195.711 397.053 195.727C397.072 195.743 397.085 195.767 397.088 195.793C397.091 195.819 397.085 195.845 397.071 195.866C397.057 195.887 397.037 195.901 397.014 195.907Z" fill="black"/>
<path d="M418.467 216.881C418.318 217.761 418.28 218.66 418.354 219.552C418.403 220.455 418.456 221.357 418.533 222.258L419.033 227.658C419.392 231.257 419.819 234.848 420.216 238.442L420.849 243.829C421.248 245.723 420.986 247.715 420.116 249.405C419.83 249.807 419.475 250.142 419.071 250.391C418.667 250.641 418.223 250.8 417.764 250.859C417.305 250.918 416.839 250.877 416.395 250.737C415.95 250.596 415.534 250.361 415.172 250.043C414.809 249.728 414.509 249.335 414.288 248.887C414.068 248.44 413.933 247.947 413.892 247.439L413.628 244.739C413.262 241.141 412.873 237.545 412.377 233.969C412.14 232.183 411.818 230.412 411.412 228.664C411.313 228.238 411.176 227.824 411.003 227.427C410.969 227.339 410.917 227.261 410.85 227.199C410.784 227.137 410.706 227.093 410.622 227.07L410.06 226.801C409.309 226.443 408.55 226.106 407.786 225.779C404.737 224.465 401.666 223.208 398.567 222.056C397.03 221.518 395.433 220.749 393.957 221.287C393.27 221.652 392.7 222.239 392.322 222.971C391.944 223.702 391.776 224.543 391.839 225.383C391.838 225.478 391.803 225.568 391.741 225.635C391.679 225.701 391.596 225.737 391.51 225.736C391.454 225.734 391.399 225.717 391.351 225.685C391.302 225.653 391.262 225.608 391.234 225.554C390.375 223.902 389.409 222.321 388.344 220.824C387.313 219.321 386.108 217.977 384.758 216.825C384.098 216.275 383.361 215.85 382.576 215.566C381.714 215.265 380.885 214.859 380.105 214.354C378.514 213.348 377.169 211.926 376.187 210.213C376.174 210.19 376.163 210.164 376.156 210.138L376.148 210.106C375.902 209.099 376.021 208.025 376.479 207.113C376.901 206.271 377.455 205.519 378.114 204.889C379.379 203.692 380.773 202.673 382.264 201.855C385.187 200.215 388.248 198.893 391.403 197.909C391.483 197.883 391.569 197.885 391.648 197.914C391.727 197.943 391.796 197.998 391.847 198.072C391.897 198.145 391.926 198.234 391.93 198.326C391.934 198.418 391.912 198.51 391.869 198.588L391.857 198.61C391.351 199.552 391.024 200.599 390.895 201.686C390.821 202.239 390.78 202.797 390.773 203.356C390.817 203.914 390.813 204.481 390.903 205.036C391.244 207.289 392.006 209.439 393.142 211.348C393.697 212.319 394.298 213.258 394.942 214.16C395.646 215.009 396.306 215.905 397.041 216.726C397.8 217.519 398.521 218.363 399.314 219.119L401.726 221.353C401.731 221.357 401.735 221.362 401.738 221.367C401.741 221.373 401.743 221.379 401.744 221.386C401.745 221.392 401.745 221.399 401.743 221.405C401.742 221.412 401.739 221.418 401.736 221.423C401.728 221.434 401.717 221.44 401.705 221.442C401.694 221.444 401.681 221.441 401.672 221.433L399.167 219.311C398.34 218.591 397.582 217.778 396.784 217.013C396.004 216.228 395.322 215.329 394.589 214.486C393.912 213.583 393.278 212.641 392.691 211.664C391.47 209.707 390.632 207.49 390.232 205.154C390.125 204.569 390.113 203.965 390.057 203.37C390.051 202.768 390.081 202.166 390.149 201.568C390.269 200.341 390.62 199.155 391.178 198.087L391.632 198.788C388.559 199.839 385.57 201.172 382.697 202.772C381.28 203.556 379.956 204.53 378.755 205.672C378.157 206.125 377.684 206.752 377.386 207.483C377.088 208.213 376.977 209.021 377.065 209.816L377.025 209.71C377.914 211.267 379.127 212.565 380.562 213.497C381.282 213.973 382.047 214.359 382.844 214.647C383.714 214.972 384.529 215.453 385.259 216.07C386.664 217.281 387.905 218.709 388.946 220.309C390.004 221.866 390.958 223.506 391.801 225.216L391.196 225.387C391.218 224.423 391.434 223.477 391.829 222.617C392.023 222.171 392.297 221.774 392.634 221.449C392.971 221.124 393.365 220.878 393.79 220.725C395.558 220.16 397.199 221.047 398.712 221.588C401.805 222.798 404.861 224.109 407.896 225.478L410.171 226.508L410.739 226.772C410.852 226.81 410.957 226.874 411.047 226.958C411.138 227.043 411.212 227.146 411.266 227.263C411.454 227.68 411.605 228.117 411.715 228.567C412.17 230.326 412.454 232.114 412.758 233.897C413.352 237.467 413.838 241.055 414.295 244.646L414.629 247.341C414.664 247.738 414.773 248.123 414.947 248.472C415.122 248.821 415.359 249.127 415.645 249.37C416.211 249.862 416.931 250.085 417.646 249.992C418.36 249.898 419.013 249.495 419.46 248.871C419.856 248.165 420.098 247.366 420.166 246.538C420.248 245.671 420.22 244.796 420.083 243.938L419.504 238.537C419.119 234.937 418.811 231.326 418.535 227.712C418.394 225.905 418.279 224.095 418.215 222.281C418.176 221.374 418.16 220.466 418.149 219.558C418.11 218.642 418.19 217.724 418.387 216.833C418.391 216.82 418.399 216.81 418.409 216.804C418.419 216.798 418.431 216.797 418.443 216.801C418.454 216.805 418.463 216.813 418.469 216.825C418.474 216.836 418.475 216.85 418.472 216.862L418.467 216.881Z" fill="black"/>
<path d="M422.566 205.204C423.207 206.207 423.773 207.267 424.257 208.373C424.499 208.929 424.675 209.521 424.887 210.098C425.061 210.696 425.189 211.309 425.27 211.93C425.473 213.204 425.378 214.515 424.994 215.737C424.564 216.989 423.746 218.031 422.686 218.678C422.645 218.702 422.599 218.717 422.553 218.723C422.506 218.728 422.459 218.723 422.414 218.708C422.369 218.693 422.327 218.668 422.291 218.636C422.255 218.603 422.225 218.562 422.202 218.517C422.181 218.472 422.167 218.424 422.162 218.374L422.161 218.36C422.013 216.604 421.675 214.874 421.154 213.207C420.893 212.384 420.481 211.629 419.944 210.99C419.682 210.701 419.345 210.51 418.98 210.443C418.801 210.468 418.628 210.532 418.472 210.632C418.316 210.731 418.18 210.865 418.071 211.024C417.165 212.469 416.51 214.088 416.138 215.798C415.677 217.493 415.291 219.225 414.954 220.948L414.96 220.783L415.373 223.926C415.39 224.061 415.36 224.198 415.288 224.309C415.216 224.42 415.107 224.495 414.986 224.519C414.864 224.543 414.739 224.514 414.637 224.438C414.534 224.362 414.463 224.245 414.437 224.111L414.435 224.1C414.183 222.621 414.038 221.122 414 219.618C413.927 218.126 413.961 216.638 414.023 215.155C414.136 212.191 414.415 209.239 414.856 206.313C414.858 206.3 414.864 206.288 414.874 206.28C414.884 206.272 414.896 206.269 414.908 206.271C414.919 206.274 414.929 206.28 414.936 206.29C414.943 206.299 414.947 206.311 414.946 206.324C414.859 209.28 414.815 212.229 414.816 215.171C414.78 218.089 414.965 221.005 415.367 223.888L414.429 224.062L414.099 220.908L414.097 220.891C414.092 220.842 414.094 220.791 414.105 220.742C414.484 218.988 414.957 217.26 415.521 215.568C416.038 213.836 416.819 212.215 417.83 210.775C417.972 210.583 418.147 210.425 418.346 210.311C418.545 210.197 418.763 210.129 418.986 210.112C419.421 210.19 419.823 210.419 420.133 210.766C420.721 211.417 421.181 212.196 421.483 213.054C422.136 214.721 422.61 216.467 422.893 218.256L422.369 217.939C423.222 217.343 423.879 216.458 424.241 215.415C424.61 214.335 424.724 213.169 424.572 212.027C424.545 211.443 424.379 210.872 424.3 210.286C424.135 209.72 424.007 209.137 423.81 208.578C423.592 208.029 423.423 207.452 423.193 206.904L422.488 205.256C422.485 205.25 422.484 205.244 422.483 205.237C422.482 205.231 422.483 205.224 422.485 205.218C422.486 205.211 422.489 205.205 422.493 205.2C422.497 205.195 422.502 205.191 422.507 205.188C422.517 205.182 422.528 205.181 422.539 205.184C422.55 205.187 422.559 205.194 422.566 205.204Z" fill="black"/>
<path d="M415.967 229.256C416.321 229.243 416.657 229.077 416.903 228.795C417.149 228.513 417.287 228.136 417.287 227.744C417.287 227.352 417.149 226.975 416.903 226.693C416.657 226.411 416.321 226.246 415.967 226.232C415.613 226.246 415.277 226.411 415.031 226.693C414.784 226.975 414.647 227.352 414.647 227.744C414.647 228.136 414.784 228.513 415.031 228.795C415.277 229.077 415.613 229.243 415.967 229.256Z" fill="black"/>
<path d="M416.951 237.603C417.305 237.59 417.641 237.424 417.887 237.142C418.134 236.86 418.271 236.483 418.271 236.091C418.271 235.699 418.134 235.322 417.887 235.04C417.641 234.758 417.305 234.593 416.951 234.579C416.597 234.593 416.261 234.758 416.015 235.04C415.768 235.322 415.631 235.699 415.631 236.091C415.631 236.483 415.768 236.86 416.015 237.142C416.261 237.424 416.597 237.59 416.951 237.603Z" fill="black"/>
<path d="M417.771 245.587C418.125 245.574 418.461 245.409 418.707 245.127C418.954 244.844 419.091 244.468 419.091 244.075C419.091 243.683 418.954 243.306 418.707 243.024C418.461 242.742 418.125 242.577 417.771 242.563C417.417 242.577 417.081 242.742 416.835 243.024C416.588 243.306 416.451 243.683 416.451 244.075C416.451 244.468 416.588 244.844 416.835 245.127C417.081 245.409 417.417 245.574 417.771 245.587Z" fill="black"/>
<path d="M426.486 202.367C431.95 202.517 437.406 202.918 442.848 203.538C445.572 203.829 448.283 204.252 450.988 204.761C453.739 205.185 456.43 205.996 458.997 207.173C459.333 207.357 459.648 207.585 459.936 207.852C460.201 208.117 460.451 208.4 460.687 208.697C461.138 209.238 461.63 209.755 462.119 210.288C463.129 211.348 464.041 212.518 464.841 213.779C466.371 216.346 467.507 219.175 468.203 222.151C469.576 228.022 470.427 234.028 470.744 240.083C470.082 234.098 469.008 228.178 467.532 222.373C466.785 219.51 465.649 216.789 464.161 214.305C463.381 213.1 462.493 211.986 461.511 210.978C461.023 210.456 460.519 209.937 460.038 209.374C459.641 208.827 459.141 208.38 458.574 208.064C456.097 206.91 453.5 206.103 450.841 205.662C448.168 205.113 445.467 204.715 442.767 204.304C437.36 203.527 431.926 202.932 426.486 202.367Z" fill="black"/>
<path d="M351.514 215.156C354.032 214.567 356.655 214.902 358.985 216.112C361.321 217.353 363.317 219.26 364.766 221.636C365.491 222.805 366.121 224.042 366.652 225.332C367.154 226.624 367.594 227.946 367.968 229.29C368.243 230.661 368.581 232.013 368.798 233.387C368.941 234.778 369.113 236.159 369.226 237.543C368.908 236.19 368.65 234.835 368.361 233.49C368.059 232.15 367.649 230.843 367.301 229.524C366.834 228.253 366.423 226.956 365.901 225.72C365.366 224.495 364.737 223.322 364.022 222.216C362.68 219.944 360.842 218.084 358.679 216.805C356.477 215.525 353.994 214.954 351.514 215.156Z" fill="black"/>
<path d="M383.877 278.915C384.505 280.765 385.167 282.596 385.936 284.373C386.664 286.17 387.463 287.928 388.31 289.655C389.986 293.114 391.901 296.424 394.039 299.555C396.146 302.706 398.542 305.606 401.19 308.209L403.212 310.118C403.905 310.728 404.653 311.258 405.369 311.837L406.448 312.705C406.822 312.97 407.213 313.205 407.595 313.456L409.899 314.964C406.593 313.405 403.507 311.328 400.735 308.798C397.972 306.241 395.482 303.344 393.313 300.162C391.173 296.967 389.292 293.569 387.69 290.009C386.085 286.462 384.808 282.745 383.877 278.915Z" fill="black"/>
<path d="M326.949 296.008C326.909 302.037 326.789 308.063 326.7 314.091C326.627 320.118 326.442 326.142 326.318 332.168L326.314 332.219L326.307 332.274C325.974 334.682 326.252 337.145 327.109 339.389C328.019 341.557 329.653 343.251 331.667 344.116C332.185 344.302 332.691 344.517 333.215 344.686L334.838 345.033C335.961 345.216 337.121 345.351 338.267 345.49C340.567 345.76 342.872 346.001 345.181 346.212C354.413 347.071 363.674 347.511 372.931 347.74C382.184 347.976 391.441 347.637 400.66 346.726C409.82 345.748 419.124 344.195 427.446 339.785C427.528 339.742 427.62 339.734 427.707 339.761C427.793 339.789 427.868 339.851 427.916 339.935C428.571 341.066 429.48 341.99 430.553 342.618C431.649 343.257 432.858 343.621 434.095 343.682C435.35 343.735 436.604 343.588 437.821 343.247C438.425 343.051 439.03 342.847 439.631 342.627L441.388 341.82L439.67 342.735C439.079 342.992 438.479 343.236 437.877 343.472C436.649 343.897 435.369 344.112 434.081 344.109C432.76 344.129 431.453 343.794 430.273 343.134C429.094 342.473 428.076 341.507 427.307 340.317L427.776 340.468C423.617 342.866 419.191 344.646 414.611 345.764C410.061 346.92 405.454 347.786 400.814 348.359C391.543 349.406 382.224 349.847 372.907 349.678C363.596 349.613 354.302 348.959 345.035 348.044C342.718 347.812 340.403 347.548 338.089 347.254C336.93 347.102 335.78 346.959 334.61 346.758L332.818 346.356C332.23 346.163 331.65 345.915 331.068 345.694C328.72 344.628 326.842 342.587 325.836 340.009C324.921 337.471 324.67 334.699 325.114 332.01L325.103 332.117C325.391 326.098 325.62 320.076 325.959 314.06C326.283 308.042 326.576 302.023 326.949 296.008Z" fill="black"/>
<path d="M360.701 303.087C360.853 306.401 360.938 309.715 361.042 313.029L360.837 312.683C371.375 316.863 382.438 319.198 393.627 319.605C399.189 319.791 404.753 319.309 410.221 318.166L414.293 317.192C415.637 316.814 416.942 316.28 418.27 315.832L420.26 315.143C420.909 314.871 421.538 314.546 422.179 314.25L426.017 312.431L425.691 312.975C425.842 311.969 426.199 311.014 426.735 310.184C427.233 309.379 427.854 308.677 428.569 308.108C429.967 307.012 431.574 306.285 433.266 305.985C434.088 305.826 434.917 305.715 435.75 305.652C436.58 305.652 437.409 305.572 438.233 305.64C439.057 305.715 439.884 305.715 440.698 305.854L443.137 306.254L440.681 306.102C439.865 306.057 439.046 306.099 438.232 306.092C437.417 306.086 436.61 306.227 435.802 306.287C435.004 306.408 434.212 306.576 433.429 306.788C431.893 307.193 430.449 307.945 429.189 308.997C427.99 309.992 427.175 311.451 426.907 313.082L426.902 313.127C426.888 313.232 426.852 313.333 426.797 313.42C426.741 313.507 426.667 313.578 426.581 313.627C421.541 316.589 416.148 318.752 410.562 320.049C404.974 321.301 399.272 321.813 393.575 321.577C387.898 321.347 382.252 320.535 376.711 319.15C373.952 318.435 371.214 317.627 368.519 316.67C365.808 315.756 363.152 314.655 360.566 313.375L360.55 313.367C360.492 313.338 360.442 313.29 360.409 313.23C360.375 313.169 360.358 313.099 360.36 313.029C360.464 309.715 360.55 306.401 360.701 303.087Z" fill="black"/>
<path d="M334.239 320.663C335.667 318.486 337.488 316.662 339.587 315.305C341.688 313.928 343.962 312.905 346.335 312.27C347.528 312.002 348.736 311.816 349.95 311.711C351.159 311.581 352.375 311.559 353.587 311.647C354.799 311.676 355.994 311.947 357.191 312.09C358.371 312.37 359.543 312.688 360.701 313.029C359.499 312.911 358.32 312.693 357.132 312.58C355.94 312.538 354.757 312.357 353.569 312.422C351.205 312.409 348.847 312.688 346.538 313.251C344.237 313.831 342.016 314.746 339.934 315.974C337.822 317.191 335.899 318.774 334.239 320.663Z" fill="black"/>
<path d="M426.299 313.029C426.662 313.906 427.092 314.748 427.584 315.545C428.049 316.325 428.647 316.998 429.344 317.525C429.516 317.638 429.697 317.735 429.884 317.815C430.139 317.921 430.369 318.087 430.557 318.303C430.726 318.546 430.837 318.83 430.881 319.132C430.925 319.434 430.901 319.743 430.81 320.031C430.512 321.017 430.027 321.921 429.389 322.683L429.384 322.689L429.358 322.717C428.678 323.427 428.165 324.31 427.865 325.29C427.727 325.752 427.684 326.243 427.739 326.726C427.794 327.209 427.946 327.673 428.184 328.082C428.625 328.878 429.595 329.652 429.967 330.873C430.082 331.188 430.133 331.527 430.118 331.866C430.102 332.205 430.02 332.537 429.876 332.837C429.564 333.393 429.094 333.819 428.54 334.048L428.662 333.956C427.945 334.794 427.396 335.791 427.053 336.881C426.886 337.425 426.835 338.004 426.903 338.573C427.018 339.149 427.262 339.682 427.611 340.126C427.183 339.733 426.864 339.214 426.69 338.629C426.552 338.02 426.543 337.383 426.663 336.77C426.78 336.16 426.979 335.573 427.255 335.03C427.518 334.479 427.829 333.958 428.184 333.474C428.205 333.445 428.232 333.422 428.262 333.405L428.306 333.381C428.691 333.183 429.009 332.854 429.215 332.443C429.296 332.244 429.339 332.028 429.339 331.809C429.34 331.591 429.298 331.374 429.218 331.175C428.921 330.233 428.12 329.648 427.455 328.6C427.133 328.077 426.923 327.48 426.84 326.854C426.776 326.227 426.837 325.592 427.019 324.994C427.386 323.858 428.004 322.841 428.817 322.037L428.786 322.07C429.349 321.413 429.795 320.643 430.1 319.802C430.171 319.639 430.204 319.458 430.197 319.277C430.19 319.095 430.142 318.919 430.058 318.763C429.946 318.624 429.809 318.512 429.657 318.435C429.441 318.324 429.235 318.193 429.039 318.044C428.308 317.433 427.714 316.644 427.304 315.739C426.879 314.88 426.542 313.971 426.299 313.029Z" fill="black"/>
<path d="M442.59 314.047C442.563 314.662 442.536 315.267 442.508 315.872C441.406 315.862 440.294 315.811 439.192 315.68C437.894 315.564 436.608 315.324 435.347 314.964C436.608 314.604 437.894 314.365 439.192 314.249C440.322 314.118 441.461 314.067 442.59 314.047Z" fill="black"/>
<path d="M442.299 320.832C442.262 321.447 442.244 322.051 442.217 322.646C441.205 322.626 440.203 322.576 439.192 322.455C437.894 322.338 436.608 322.099 435.347 321.739C436.608 321.379 437.894 321.14 439.192 321.023C440.23 320.902 441.26 320.852 442.299 320.832Z" fill="black"/>
<path d="M442.025 327.364C442.007 327.979 441.98 328.584 441.961 329.178C441.041 329.148 440.112 329.098 439.192 328.987C437.894 328.871 436.607 328.631 435.347 328.271C436.608 327.911 437.894 327.672 439.192 327.555C440.139 327.444 441.087 327.394 442.025 327.364Z" fill="black"/>
<path d="M439.192 335.358C440.048 335.257 440.905 335.207 441.752 335.177C441.725 335.792 441.706 336.386 441.688 336.961C440.859 336.941 440.021 336.89 439.192 336.789C437.894 336.673 436.607 336.434 435.347 336.074C436.608 335.714 437.894 335.475 439.192 335.358Z" fill="black"/>
<path d="M411.107 350.363C411.107 350.363 394.691 332.412 388.563 344.053C382.434 355.694 386.647 364.233 391.201 369.995C396.748 377.015 397.027 379.117 398.673 381.196C400.319 383.275 418.899 408.408 442.058 406.996C455.567 406.173 455.337 398.207 452.8 391.713C450.956 387.113 447.992 383.17 444.241 380.326C436.843 374.605 420.311 361.357 411.107 350.363Z" fill="black"/>
<path d="M405.508 345.234C409.038 345.418 412.559 345.681 416.08 345.935L426.636 346.727C430.151 347.036 433.67 347.261 437.188 347.468C438.947 347.589 440.707 347.659 442.466 347.691C443.344 347.689 444.229 347.76 445.104 347.689L446.422 347.62L447.726 347.392C444.253 348.172 440.704 348.458 437.165 348.243C433.628 348.196 430.1 347.962 426.574 347.732C423.052 347.427 419.531 347.121 416.02 346.704C412.508 346.289 409.001 345.832 405.508 345.234Z" fill="black"/>
<path d="M440.639 378.008C440.539 378.008 440.442 377.972 440.362 377.904C440.283 377.837 440.226 377.743 440.199 377.637C440.173 377.53 440.179 377.417 440.216 377.314C440.254 377.212 440.32 377.126 440.406 377.069C441.119 376.605 457.944 365.674 464.24 367.947C464.354 367.989 464.449 368.08 464.503 368.199C464.557 368.318 464.566 368.456 464.528 368.582C464.491 368.709 464.409 368.814 464.302 368.874C464.195 368.935 464.07 368.946 463.956 368.905C458.053 366.765 441.041 377.825 440.87 377.938C440.8 377.984 440.72 378.008 440.639 378.008Z" fill="black"/>
<path d="M541.229 303.895L541.238 303.895L541.271 303.902L580.957 320.175L580.992 320.191C584.937 322.232 588.691 324.699 592.198 327.556C595.741 330.417 598.861 333.868 601.448 337.786C602.78 339.762 603.826 341.954 604.549 344.286C605.247 346.582 605.793 348.932 606.183 351.316C607.067 356.162 606.762 361.182 605.298 365.853C604.477 368.178 603.27 370.312 601.741 372.146C600.199 373.953 598.4 375.466 596.414 376.624C594.441 377.776 592.339 378.631 590.161 379.165C589.078 379.418 587.983 379.598 586.88 379.704L583.659 380.092C575.072 381.109 566.486 382.141 557.891 383.067C540.7 384.928 523.505 386.752 506.273 388.155C501.965 388.51 497.655 388.843 493.34 389.116C489.015 389.356 484.724 389.689 480.329 389.475C478.072 389.27 475.926 388.304 474.18 386.707C472.466 385.176 470.958 383.382 469.703 381.378C467.224 377.409 465.229 373.096 463.768 368.551C463.748 368.491 463.742 368.426 463.751 368.363C463.759 368.3 463.782 368.24 463.817 368.189C463.852 368.138 463.898 368.098 463.951 368.072C464.004 368.046 464.062 368.036 464.119 368.041L464.131 368.042C465.976 368.305 467.845 368.298 469.688 368.023C470.555 367.839 471.473 367.454 471.724 366.64C471.88 365.698 471.712 364.725 471.253 363.913C470.347 362.103 469.286 360.393 468.087 358.806C466.914 357.173 465.698 355.571 464.494 353.956C463.288 352.342 462.091 350.717 460.932 349.057C459.833 347.388 458.505 345.921 456.995 344.707C456.288 344.083 455.457 343.654 454.571 343.453C453.685 343.252 452.769 343.287 451.897 343.553C450.202 344.309 448.818 345.732 448.012 347.548L448.002 347.567C447.973 347.628 447.928 347.677 447.873 347.709C447.818 347.741 447.756 347.755 447.695 347.748C447.633 347.742 447.574 347.715 447.526 347.672C447.478 347.628 447.443 347.57 447.424 347.505C446.829 345.475 446.517 343.355 446.501 341.221C446.496 340.133 446.652 339.051 446.961 338.018C447.282 336.944 447.891 336.004 448.707 335.324L448.661 335.368C449.407 334.645 450.264 334.074 451.192 333.684C452.074 333.277 452.975 332.921 453.89 332.618C455.709 332.002 457.55 331.503 459.398 331.05C463.095 330.152 466.819 329.434 470.549 328.78C478.012 327.484 485.506 326.459 493.007 325.527C508.011 323.666 523.044 322.186 538.104 320.96L537.449 321.649C538.398 315.013 539.629 308.608 540.792 302.107L544.411 282.69L551.684 243.864L552.02 244.879C551.207 244.379 550.326 244.027 549.411 243.838C548.416 243.586 547.395 243.378 546.361 243.211C544.297 242.865 542.201 242.629 540.104 242.422C535.905 242.014 531.682 241.773 527.458 241.561C519.008 241.146 510.54 240.954 502.072 240.843C485.134 240.626 468.184 240.79 451.246 241.05L451.859 240.752C451.294 241.535 450.857 242.422 450.569 243.372C450.222 244.381 449.931 245.437 449.669 246.505C449.149 248.646 448.742 250.841 448.374 253.045C447.649 257.458 447.097 261.921 446.61 266.392C445.647 275.339 444.947 284.33 444.343 293.327C443.747 302.329 443.247 311.338 442.843 320.356C442.392 329.36 442.094 338.391 441.788 347.406L441.788 347.415C441.784 347.531 441.739 347.64 441.663 347.719C441.587 347.799 441.485 347.841 441.381 347.838L406.654 346.84C406.63 346.839 406.607 346.828 406.59 346.809C406.574 346.79 406.565 346.764 406.565 346.738C406.566 346.711 406.575 346.686 406.593 346.667C406.61 346.649 406.633 346.638 406.657 346.639L441.394 346.951L440.987 347.383C441.194 338.347 441.429 329.327 441.797 320.293C442.127 311.276 442.549 302.255 443.066 293.23C443.594 284.212 444.216 275.198 445.106 266.2C445.556 261.702 446.072 257.208 446.769 252.728C447.123 250.489 447.516 248.253 448.037 246.027C448.299 244.914 448.593 243.804 448.962 242.699C449.317 241.501 449.872 240.387 450.597 239.414C450.669 239.324 450.757 239.251 450.856 239.2C450.955 239.149 451.062 239.121 451.172 239.117L451.21 239.116C459.691 238.874 468.168 238.788 476.649 238.719C485.129 238.659 493.61 238.669 502.092 238.75C510.574 238.845 519.058 239.023 527.544 239.424C531.787 239.634 536.029 239.912 540.273 240.34C542.396 240.559 544.518 240.807 546.643 241.174C547.706 241.351 548.77 241.571 549.839 241.847C551.01 242.093 552.13 242.576 553.143 243.271C553.28 243.373 553.387 243.518 553.449 243.687C553.511 243.857 553.526 244.043 553.492 244.222L553.48 244.287L546.061 283.068L542.334 302.455C541.123 308.903 539.823 315.422 538.85 321.828L538.844 321.87C538.817 322.043 538.739 322.201 538.621 322.318C538.504 322.436 538.354 322.506 538.195 322.517C523.153 323.589 508.112 324.916 493.114 326.623C485.618 327.5 478.129 328.471 470.679 329.711C466.956 330.337 463.24 331.026 459.563 331.891C457.726 332.328 455.898 332.811 454.106 333.403C453.213 333.692 452.334 334.032 451.473 334.422C450.632 334.768 449.852 335.272 449.167 335.912L449.154 335.926L449.12 335.957C448.415 336.541 447.888 337.35 447.61 338.274C447.32 339.227 447.172 340.226 447.172 341.231C447.179 343.284 447.467 345.323 448.028 347.28L447.44 347.237C448.328 345.261 449.85 343.722 451.709 342.922C452.668 342.63 453.675 342.593 454.649 342.814C455.623 343.035 456.536 343.507 457.314 344.191C458.859 345.457 460.228 346.968 461.374 348.676C462.535 350.322 463.735 351.935 464.946 353.54C466.156 355.147 467.38 356.744 468.568 358.381C469.803 360 470.895 361.747 471.828 363.597C472.378 364.579 472.562 365.758 472.341 366.887C472.139 367.463 471.751 367.936 471.252 368.214C470.801 368.469 470.318 368.649 469.819 368.75C467.912 369.051 465.977 369.071 464.064 368.81L464.427 368.302C465.874 372.766 467.869 376.99 470.355 380.854C471.584 382.767 473.053 384.476 474.718 385.93C476.337 387.384 478.321 388.251 480.401 388.412C484.636 388.562 488.978 388.178 493.269 387.879C497.571 387.552 501.872 387.163 506.171 386.753C523.365 385.066 540.551 383.243 557.729 381.284L583.496 378.391C585.628 378.104 587.837 377.994 589.838 377.526C591.884 377.034 593.861 376.242 595.717 375.171C599.463 373.093 602.396 369.577 603.968 365.279C605.357 360.877 605.656 356.143 604.834 351.569C604.469 349.248 603.958 346.959 603.305 344.717C602.644 342.515 601.677 340.441 600.441 338.567C597.962 334.727 594.96 331.335 591.543 328.511C588.12 325.658 584.451 323.185 580.589 321.129L580.623 321.145L541.206 304.091L541.238 304.097L541.229 304.097C541.205 304.097 541.182 304.087 541.165 304.068C541.148 304.049 541.138 304.023 541.138 303.996C541.138 303.97 541.148 303.944 541.165 303.925C541.182 303.906 541.205 303.896 541.229 303.896L541.229 303.895Z" fill="black"/>
<path d="M451.228 240.083C444.558 248.43 441.387 347.395 441.387 347.395H447.729C447.729 347.395 445.078 338.705 448.913 335.64C455.883 327.696 538.149 321.739 538.149 321.739C538.332 319.995 539.562 313.059 541.238 303.996C545.484 280.921 552.582 244.075 552.582 244.075C545.366 237.906 451.228 240.083 451.228 240.083ZM497.805 285.447C489.832 285.447 483.372 283.331 483.372 280.73C483.372 278.129 489.832 276.012 497.805 276.012C505.777 276.012 512.237 278.129 512.237 280.73C512.237 283.331 505.777 285.447 497.805 285.447V285.447Z" fill="black"/>
<path d="M359.3 348.23C358.244 355.18 357.691 362.213 357.646 369.261C357.546 376.287 358.154 383.303 359.458 390.18C360.852 396.965 363.269 403.668 367.519 408.75C369.689 411.241 372.204 413.331 374.971 414.941L377.037 416.213C377.73 416.629 378.458 416.982 379.167 417.37C380.589 418.138 382.016 418.896 383.486 419.561C389.308 422.352 395.292 424.763 401.331 426.98C407.366 429.216 413.459 431.267 419.572 433.247C431.791 437.256 444.128 440.748 456.5 444.241C459.667 445.173 462.634 446.797 465.226 449.017C467.818 451.237 469.982 454.008 471.592 457.168C472.386 458.741 473.044 460.394 473.557 462.105C474.026 463.819 474.379 465.569 474.615 467.34L476.184 477.782C478.343 491.693 480.432 505.617 482.676 519.511L496.158 602.871L495.526 602.267C504.937 602.418 514.373 602.28 523.766 601.724C528.463 601.447 533.154 601.056 537.795 600.38C540.104 600.053 542.396 599.594 544.663 599.005C545.773 598.715 546.865 598.347 547.933 597.903C548.919 597.524 549.827 596.932 550.605 596.162L550.374 596.863C549.703 579.012 548.9 561.158 548.065 543.311C547.218 525.463 546.172 507.63 545.115 489.799C544.009 471.971 542.742 454.153 540.999 436.393C540.125 427.514 539.101 418.652 537.816 409.84C537.162 405.438 536.437 401.043 535.462 396.718C534.992 394.552 534.404 392.421 533.701 390.334C533.351 389.295 532.92 388.291 532.415 387.334C532.202 386.845 531.905 386.406 531.539 386.044C531.173 385.682 530.747 385.403 530.283 385.224L530.276 385.222C530.252 385.217 530.232 385.201 530.218 385.179C530.205 385.157 530.2 385.13 530.205 385.104C530.21 385.078 530.223 385.055 530.243 385.04C530.263 385.025 530.288 385.02 530.311 385.025C530.808 385.197 531.268 385.476 531.666 385.848C532.063 386.219 532.39 386.674 532.627 387.187C533.161 388.147 533.62 389.156 533.997 390.203C534.748 392.287 535.384 394.42 535.902 396.59C536.97 400.914 537.787 405.303 538.533 409.702C540.007 418.506 541.066 427.381 542.056 436.258C543.996 454.02 545.459 471.837 546.759 489.664C548.087 507.489 549.04 525.344 549.954 543.197C550.867 561.053 551.604 578.917 552.165 596.791L552.166 596.823C552.17 596.946 552.152 597.069 552.112 597.184C552.072 597.299 552.011 597.404 551.934 597.493C550.971 598.494 549.826 599.257 548.577 599.732C547.434 600.202 546.265 600.589 545.078 600.892C542.748 601.484 540.392 601.942 538.019 602.264C533.301 602.923 528.574 603.288 523.848 603.539C514.392 603.984 504.946 603.996 495.491 603.726C495.339 603.722 495.193 603.659 495.077 603.549C494.962 603.439 494.885 603.288 494.859 603.122L482.082 519.625C479.95 505.71 477.663 491.824 475.446 477.925L473.733 467.51C473.481 465.793 473.115 464.099 472.638 462.442C472.124 460.81 471.471 459.236 470.688 457.74C469.117 454.758 467.024 452.153 464.53 450.079C462.037 448.004 459.194 446.502 456.168 445.661C443.761 442.44 431.382 438.9 419.117 434.971C412.977 433.024 406.889 430.871 400.835 428.604C394.781 426.338 388.777 423.877 382.908 421.019C381.429 420.338 379.985 419.56 378.545 418.771C377.826 418.372 377.094 418.011 376.387 417.582L374.28 416.267C371.401 414.565 368.798 412.346 366.575 409.701C362.178 404.28 359.809 397.339 358.477 390.419C357.225 383.452 356.731 376.345 357.004 369.248C357.203 362.177 357.911 355.136 359.122 348.19C359.126 348.163 359.14 348.14 359.16 348.125C359.18 348.11 359.205 348.105 359.229 348.11C359.252 348.116 359.273 348.132 359.286 348.154C359.299 348.176 359.304 348.203 359.3 348.23Z" fill="black"/>
<path d="M510.269 615.88C510.269 615.88 502.397 614.973 502.397 619.146C502.397 623.32 503.053 653.805 506.333 654.712C509.613 655.619 605.719 692.273 631.303 662.514C631.303 662.514 649.016 651.627 615.559 638.925C582.102 626.223 561.11 613.521 561.11 613.521C561.11 613.521 529.293 614.61 528.637 618.239C527.981 621.868 532.901 634.933 532.901 634.933C532.901 634.933 511.909 640.377 510.269 615.88Z" fill="black"/>
<path d="M510.269 616.385C510.231 616.385 510.193 616.379 510.156 616.369C510.039 616.336 509.939 616.252 509.877 616.137C509.816 616.022 509.798 615.884 509.828 615.755C510.261 613.658 510.316 611.486 509.99 609.366C509.664 607.245 508.963 605.216 507.928 603.395C507.893 603.341 507.869 603.28 507.856 603.215C507.843 603.151 507.842 603.084 507.853 603.019C507.863 602.953 507.885 602.891 507.917 602.835C507.949 602.78 507.991 602.731 508.04 602.694C508.089 602.656 508.144 602.629 508.203 602.614C508.261 602.6 508.322 602.599 508.381 602.61C508.439 602.622 508.496 602.646 508.546 602.682C508.597 602.717 508.64 602.764 508.674 602.818C509.798 604.752 510.557 606.916 510.907 609.182C511.257 611.449 511.19 613.77 510.71 616.006C510.685 616.115 510.628 616.211 510.548 616.279C510.469 616.348 510.37 616.385 510.269 616.385Z" fill="black"/>
<path d="M557.174 614.025L557.158 614.024C547.243 613.658 537.549 602.213 537.141 601.727C537.1 601.679 537.069 601.622 537.048 601.56C537.027 601.498 537.017 601.432 537.02 601.366C537.022 601.299 537.036 601.234 537.061 601.174C537.086 601.114 537.121 601.06 537.165 601.015C537.209 600.97 537.26 600.935 537.316 600.912C537.372 600.889 537.432 600.878 537.492 600.88C537.552 600.883 537.61 600.898 537.665 600.926C537.719 600.953 537.768 600.993 537.809 601.041C537.906 601.158 547.655 612.664 557.189 613.018C557.309 613.022 557.422 613.078 557.504 613.174C557.586 613.27 557.631 613.398 557.629 613.53C557.627 613.662 557.578 613.788 557.493 613.881C557.408 613.973 557.293 614.025 557.174 614.025V614.025Z" fill="black"/>
<path d="M315.241 426.615L316.799 456.926L318.22 487.243C318.705 497.348 319.347 507.447 319.505 517.566C319.575 522.625 319.645 527.685 319.597 532.749L319.521 540.346C319.441 542.881 319.412 545.413 319.287 547.949C319.285 547.987 319.27 548.023 319.246 548.049C319.222 548.076 319.189 548.091 319.155 548.093C319.121 548.094 319.087 548.081 319.061 548.057C319.035 548.032 319.018 547.998 319.014 547.96C318.72 545.441 318.523 542.918 318.274 540.397L317.693 532.827C317.307 527.78 317.04 522.729 316.773 517.677C316.257 507.573 316.224 497.45 316.035 487.332L315.433 456.982L314.968 426.626C314.968 426.587 314.981 426.549 315.006 426.52C315.03 426.491 315.064 426.474 315.1 426.473C315.136 426.471 315.17 426.485 315.197 426.512C315.223 426.539 315.239 426.576 315.241 426.615V426.615Z" fill="black"/>
<path d="M389.699 483.96L390.464 514.828L391.093 545.697C391.314 555.987 391.691 566.275 391.585 576.568C391.523 581.714 391.461 586.86 391.28 592.008L391.006 599.729C390.86 602.303 390.765 604.877 390.574 607.451C390.571 607.489 390.555 607.524 390.53 607.55C390.505 607.576 390.472 607.59 390.438 607.591C390.404 607.591 390.371 607.577 390.345 607.552C390.32 607.526 390.304 607.491 390.3 607.454C390.073 604.883 389.941 602.311 389.759 599.74L389.375 592.024C389.122 586.881 388.987 581.736 388.852 576.591C388.6 566.302 388.832 556.008 388.906 545.716L389.098 514.84L389.426 483.962C389.426 483.923 389.441 483.885 389.466 483.857C389.491 483.829 389.526 483.813 389.561 483.813C389.597 483.813 389.631 483.828 389.657 483.855C389.683 483.883 389.698 483.92 389.699 483.96L389.699 483.96Z" fill="black"/>
<path d="M319.15 548.126C325.551 548.126 330.74 547.043 330.74 545.707C330.74 544.371 325.551 543.287 319.15 543.287C312.75 543.287 307.561 544.371 307.561 545.707C307.561 547.043 312.75 548.126 319.15 548.126Z" fill="black"/>
<path d="M390 607.946C396.4 607.946 401.589 606.863 401.589 605.527C401.589 604.19 396.4 603.107 390 603.107C383.599 603.107 378.41 604.19 378.41 605.527C378.41 606.863 383.599 607.946 390 607.946Z" fill="black"/>
<path d="M467.076 463.995L468.095 478.157L468.977 492.324C469.254 497.047 469.766 501.761 469.724 506.497C469.755 511.255 469.502 516.01 468.967 520.731C468.963 520.766 468.947 520.799 468.923 520.824C468.899 520.848 468.868 520.862 468.835 520.863C468.802 520.864 468.77 520.853 468.745 520.831C468.719 520.809 468.701 520.777 468.694 520.742C467.846 516.077 467.278 511.356 466.992 506.608C466.634 501.888 466.831 497.146 466.792 492.413L466.729 478.213L466.803 464.006C466.803 463.967 466.817 463.93 466.841 463.902C466.866 463.874 466.899 463.857 466.934 463.856C466.97 463.854 467.004 463.868 467.03 463.894C467.057 463.92 467.073 463.956 467.076 463.995Z" fill="black"/>
<path d="M568.902 431.564L569.665 462.072L570.291 492.581C570.511 502.751 570.887 512.919 570.78 523.092C570.718 528.178 570.655 533.264 570.474 538.352L570.2 545.983C570.053 548.527 569.958 551.07 569.766 553.615C569.764 553.653 569.748 553.688 569.723 553.714C569.698 553.739 569.665 553.754 569.631 553.754C569.597 553.755 569.563 553.741 569.538 553.715C569.513 553.69 569.497 553.655 569.493 553.617C569.266 551.076 569.134 548.535 568.952 545.993L568.569 538.368C568.316 533.285 568.182 528.2 568.047 523.115C567.796 512.946 568.029 502.773 568.104 492.6L568.298 462.084L568.629 431.567C568.629 431.527 568.643 431.489 568.669 431.461C568.694 431.433 568.728 431.417 568.764 431.417C568.8 431.417 568.834 431.432 568.86 431.46C568.886 431.487 568.901 431.525 568.902 431.564V431.564Z" fill="black"/>
<path d="M468.831 520.908C475.231 520.908 480.42 519.824 480.42 518.488C480.42 517.152 475.231 516.069 468.831 516.069C462.43 516.069 457.241 517.152 457.241 518.488C457.241 519.824 462.43 520.908 468.831 520.908Z" fill="black"/>
<path d="M569.192 554.11C575.593 554.11 580.782 553.026 580.782 551.69C580.782 550.354 575.593 549.271 569.192 549.271C562.792 549.271 557.603 550.354 557.603 551.69C557.603 553.026 562.792 554.11 569.192 554.11Z" fill="black"/>
<path d="M447.726 347.896H441.388C441.267 347.896 441.152 347.842 441.067 347.748C440.982 347.653 440.934 347.525 440.934 347.392C440.934 347.259 440.982 347.131 441.067 347.036C441.152 346.942 441.267 346.888 441.388 346.887H447.726C447.847 346.888 447.962 346.942 448.047 347.036C448.132 347.131 448.18 347.259 448.18 347.392C448.18 347.525 448.132 347.653 448.047 347.748C447.962 347.842 447.847 347.896 447.726 347.896Z" fill="black"/>
</svg>
